<svg xmlns="http://www.w3.org/2000/svg" width="13" height="13" viewBox="0 0 13 13">
<path style="fill:#9AA7B0;fill-opacity:0.8;" d="M8.7,12.2V3.8c0-0.3,0.3-0.6,0.6-0.6h0.2V0.8h-4v4.1H1.4v7.3
	C1.4,12.2,8.7,12.2,8.7,12.2z"/>
<path style="fill:#9AA7B0;fill-opacity:0.8;" d="M4.6,0.8L1.4,4.1h3.2V0.8L4.6,0.8z"/>
<path style="fill:#40B6E0;fill-opacity:0.7;" d="M11.6,13H10c-0.2,0-0.4-0.2-0.4-0.4V11c0-0.2,0.2-0.4,0.4-0.4h1.6
	c0.2,0,0.4,0.2,0.4,0.4v1.6C12,12.8,11.8,13,11.6,13"/>
<path style="fill:#B99BF8;fill-opacity:0.7;" d="M11.6,9.8H10c-0.2,0-0.4-0.2-0.4-0.4V7.7c0-0.2,0.2-0.4,0.4-0.4h1.6
	c0.2,0,0.4,0.2,0.4,0.4v1.6C12,9.6,11.8,9.7,11.6,9.8"/>
<path style="fill:#F4AF3D;fill-opacity:0.7;" d="M11.6,6.5H10c-0.2,0-0.4-0.2-0.4-0.4V4.5c0-0.2,0.2-0.4,0.4-0.4h1.6
	c0.2,0,0.4,0.2,0.4,0.4v1.6C12,6.3,11.8,6.5,11.6,6.5"/>
</svg>
